<svg width="10" height="11" viewBox="0 0 10 11" fill="none" xmlns="http://www.w3.org/2000/svg">
<path d="M4.84375 0.40625C7.5 0.40625 9.6875 2.59375 9.6875 5.25C9.6875 7.92578 7.5 10.0938 4.84375 10.0938C2.16797 10.0938 0 7.92578 0 5.25C0 2.59375 2.16797 0.40625 4.84375 0.40625ZM7.07031 4.83984C7.24609 4.60547 7.44141 3.84375 6.79688 3.43359C6.26953 3.08203 5.74219 3.35547 5.46875 3.66797C5.17578 4 4.57031 4.01953 4.27734 3.66797C4.00391 3.35547 3.47656 3.08203 2.92969 3.43359C2.28516 3.84375 2.5 4.60547 2.65625 4.83984L4.86328 7.82812L7.07031 4.83984Z" fill="#8B98BB"/>
</svg>
